<svg width="337" height="233" viewBox="0 0 337 233" fill="none" xmlns="http://www.w3.org/2000/svg">
<path fill-rule="evenodd" clip-rule="evenodd" d="M220.758 150.747C209.627 168.345 189.908 180.043 167.437 180.043C145.665 180.043 126.476 169.061 115.18 152.37C103.884 169.062 84.6933 180.046 62.9198 180.046C46.976 180.046 32.4173 174.156 21.3291 164.449V222.582C21.3291 228.333 16.5544 232.996 10.6646 232.996C4.77468 232.996 0 228.333 0 222.582V118.438C0 118.353 0.00103003 118.269 0.0030785 118.185C0.00102775 117.977 0 117.769 0 117.56C0 83.0507 28.1702 55.0751 62.9198 55.0751C84.6921 55.0751 103.881 66.0572 115.178 82.7478C126.474 66.0556 145.664 55.0723 167.437 55.0723C184.424 55.0723 199.838 61.7567 211.158 72.6214V65.663C211.158 59.8139 215.932 55.0723 221.822 55.0723C227.712 55.0723 232.487 59.8139 232.487 65.663V118.617H232.5C233.066 140.939 251.464 158.861 274.078 158.861C296.691 158.861 315.09 140.939 315.655 118.617H315.669V65.663C315.669 59.8139 320.443 55.0723 326.333 55.0723C332.223 55.0723 336.997 59.8139 336.997 65.663V118.617C336.997 118.865 336.989 119.111 336.972 119.355C336.014 153.034 308.222 180.043 274.078 180.043C251.607 180.043 231.888 168.345 220.758 150.747ZM167.437 158.861C190.408 158.861 209.029 140.369 209.029 117.558C209.029 94.7461 190.408 76.2537 167.437 76.2537C144.467 76.2537 125.846 94.7461 125.846 117.558C125.846 140.369 144.467 158.861 167.437 158.861ZM104.511 117.56C104.511 140.372 85.8899 158.864 62.9198 158.864C39.9497 158.864 21.3287 140.372 21.3287 117.56C21.3287 94.7489 39.9497 76.2566 62.9198 76.2566C85.8899 76.2566 104.511 94.7489 104.511 117.56Z" fill="white"/>
<path d="M146.543 27.1885C139.832 25.5463 135.936 18.5901 138.072 12.0614V12.0614C140.208 5.53277 147.477 2.17894 153.879 4.7682L193.901 20.9556C198.152 22.675 200.345 27.3624 198.927 31.6977V31.6977C197.508 36.0331 192.96 38.5451 188.503 37.4547L146.543 27.1885Z" fill="#61CAA0"/>
</svg>